<?xml version="1.0" encoding="UTF-8"?>
<!-- Created with Inkscape (http://www.inkscape.org/) -->
<svg width="512" height="512" version="1.2" baseProfile="tiny-ps" viewBox="0 0 512 512" xml:space="preserve" xmlns="http://www.w3.org/2000/svg">
<title>BYWJEnsoTinyPS</title>
<g transform="translate(-.21035 -.21035)"><path d="m0.21035 256.21v-256h512v512h-512z" fill="#fdfcfc"/><path d="m0.21035 256.21v-256h512v512h-512zm282.5 226.06c11.701-1.7162 24.485-4.1362 28.5-5.395 0.825-0.25866 5.55-1.701 10.5-3.2051 10.424-3.1675 26.402-9.3697 34.91-13.551 3.2503-1.5974 7.2308-2.9044 8.8454-2.9044 1.9307 0 6.0696-2.0953 12.09-6.1207 36.323-24.285 56.989-46.017 76.914-80.879 7.759-13.576 8.3998-14.78 11.713-22 1.6404-3.575 4.3381-8.975 5.9947-12 1.6566-3.025 3.432-6.85 3.9452-8.5s2.3265-6.9976 4.0295-11.884c5.4898-15.751 6.3615-21.972 6.3911-45.616 0.0289-23.033-1.5466-44.343-3.8878-52.588-0.79462-2.7983-1.4448-6.5044-1.4448-8.2356 0-3.4984-1.397-10.274-3.5694-17.311-0.78683-2.5488-1.4306-5.7421-1.4306-7.0961 0-3.4622-4.8156-16.248-11.212-29.77-5.8098-12.281-13.782-25.06-21.212-34-2.514-3.025-7.111-8.7625-10.216-12.75-5.8815-7.5542-7.3603-8.609-7.3603-5.25 0 1.1-0.48494 2-1.0776 2-0.59271 0-6.5552-5.1481-13.25-11.44-14.366-13.502-14.886-13.919-25.763-20.685-19.626-12.207-24.337-14.863-31.673-17.859-4.2547-1.7374-9.6639-4.0363-12.02-5.1088-11.64-5.2972-42.673-13.336-55.715-14.433-2.75-0.23121-8.6-0.81416-13-1.2955-5.943-0.65008-9.157-0.53126-12.5 0.46209-2.475 0.73544-6.4862 1.342-8.9137 1.348-5.5422 0.01359-30.909 4.3579-41.086 7.0364-1.925 0.50664-5.975 1.5787-9 2.3824-11.942 3.1725-13.815 3.5921-16.041 3.5921-1.2698 0-5.4926 1.0812-9.384 2.4026s-8.6502 2.7241-10.575 3.1172l-3.5 0.71457 2.6323-2.0972c1.4478-1.1534 3.6978-2.5551 5-3.1148s3.0427-1.4028 3.8677-1.8736c4.464-2.5473 14.871-6.5192 22.5-8.5875 3.3-0.89462 7.382-2.0619 9.071-2.594s3.939-0.98767 5-1.0125c1.061-0.02481 3.279-0.70186 4.929-1.5046 2.9301-1.4254 2.8718-1.4466-2.5-0.90607-14.326 1.4414-37.217 9.9372-65 24.124-24.673 12.599-37.438 20.906-47.867 31.153-7.5491 7.4166-22.239 25.289-30.971 37.679-2.3255 3.3-5.4987 7.8-7.0516 10-7.2472 10.268-18.11 30.539-18.11 33.796 0 0.57591-1.194 4.0074-2.6533 7.6256-2.213 5.4869-2.6885 8.3419-2.8655 17.206-0.11674 5.8453-0.47678 11.056-0.80008 11.579-1.1536 1.8666 1.404 20.54 3.3304 24.316 3.203 6.2785 7.5935 9.9773 11.843 9.9773 6.3911 0 10.987-4.3549 13.721-13 0.95645-3.025 3.0021-9.1 4.5458-13.5s3.311-10.025 3.9273-12.5 2.374-6.525 3.9063-9 4.391-7.7076 6.3528-11.628c4.0682-8.1296 8.4536-15.258 17.573-28.563 8.8898-12.97 32.346-36.058 46.142-45.417 12.544-8.5103 35.402-20.218 46.478-23.806 23.836-7.7215 24.673-7.8626 45-7.5837 9.9 0.13584 19.8 0.21397 22 0.17362 3.4404-0.06309 13.573 1.4929 31.5 4.8371 8.6995 1.6229 16.583 3.8187 25 6.9638 4.675 1.7468 9.4 3.435 10.5 3.7516 1.1 0.31663 7.1044 3.2356 13.343 6.4867 31.913 16.63 55.261 37.524 71.832 64.285 18.107 29.24 24.128 44.695 30.385 78 1.7269 9.1915 2.4309 45.425 1.0466 53.868-2.6518 16.174-5.4043 27.886-8.7002 37.021-1.4112 3.9111-3.0674 8.6861-3.6804 10.611s-2.6021 5.8712-4.4204 8.7694-3.3059 5.4896-3.3059 5.7587c0 0.95336-10.757 19.088-15.999 26.972-3.494 5.2549-10.833 13.42-21.386 23.794-17.589 17.29-30.278 26.374-48.114 34.447-4.95 2.2402-11.7 5.2875-15 6.7717-8.0281 3.6107-25.674 8.7191-44.812 12.973-9.924 2.206-46.283 2.1187-56.045-0.13448-20.686-4.7745-45.209-14.026-62.146-23.444-27.353-15.211-43.626-28.844-62.889-52.687-5.604-6.9362-8.0646-8.8101-5.6539-4.3058 0.61391 1.1471 0.73456 2.0856 0.26811 2.0856-1.4986 0-5.9352-5.3664-8.2483-9.9769-1.2354-2.4623-3.8724-6.7532-5.86-9.5354-4.3887-6.143-5.4081-7.778-8.2535-13.238-1.2182-2.3375-2.5755-4.25-3.0162-4.25-1.2102 0 3.7218 13.113 9.6388 25.627 6.2438 13.205 11.635 21.728 21.346 33.747 3.9439 4.881 7.1707 9.4935 7.1707 10.25 0 1.5787-3.5722 1.8767-4.5 0.37544-0.33992-0.55-1.0644-1-1.6099-1-1.8441 0 4.4227 7.1187 12.038 13.675 7.965 6.8569 28.748 20.964 38.072 25.842 3.025 1.5827 6.625 3.8194 8 4.9706 5.3108 4.4462 51.992 21.466 59.121 21.555 1.8583 0.0233 7.2038 0.65378 11.879 1.4011 12.828 2.0506 37.098 1.8713 52.5-0.38779zm-141-44.477c-5.2951-2.8471-26.449-19.068-28.285-21.689-1.0505-1.4998-1.1425-2.3575-0.33921-3.1608 1.1835-1.1835 1.5073-0.94544 12.629 9.2836 3.3 3.0351 8.6924 7.3115 11.983 9.5029 7.3915 4.9224 9.9144 7.1323 8.8422 7.7451-0.4539 0.25943-2.6274-0.49728-4.83-1.6816z" fill="#ebd6cb"/><path d="m0.21035 256.21v-256h512v512h-512zm281.5 227.08c7.7-1.0316 18.743-3.0152 24.54-4.4078 9.3072-2.2359 15.519-4.2405 40.46-13.056 3.3-1.1664 7.2686-2.9796 8.8191-4.0291 1.5505-1.0496 4.9757-2.2492 7.6116-2.6659 10.346-1.6355 44.907-27.424 61.808-46.12 9.5113-10.521 18.483-22.466 24.389-32.473 11.788-19.971 14.655-25.14 16.268-29.329 0.953-2.475 3.2156-7.0136 5.0279-10.086 5.2947-8.9753 13.237-31.313 15.615-43.914 2.3808-12.62 0.34477-75.335-2.6005-80.101-0.38169-0.61759-1.0695-4.1101-1.5285-7.7612-0.45902-3.6511-1.5563-9.5633-2.4384-13.138-0.88208-3.575-1.9951-8.75-2.4734-11.5-2.5504-14.665-18.359-46.193-31.244-62.313-2.0604-2.5778-5.5729-7.0639-7.8055-9.9693s-6.7703-8.0804-10.084-11.5c-5.6046-5.7844-6.604-5.8913-4.3712-0.46754 1.5394 3.7392-1.8245 1.3561-13.163-9.3255-6.4663-6.0915-14.412-12.729-17.657-14.75-3.245-2.021-8.7104-5.5405-12.145-7.8211-22.698-15.07-52.608-26.423-86.528-32.844-21.476-4.0654-55.383-0.96922-88.5 8.0812-14.8 4.0446-24.5 5.4652-24.5 3.588 0-1.2811 8.8235-4.9555 17.043-7.0974 4.1012-1.0687 13.606-3.549 21.121-5.512 7.5152-1.9629 15.615-3.5758 18-3.5842 2.3848-0.0084 5.011-0.45153 5.836-0.98469 2.1786-1.4079-2.1822-1.2728-16.5 0.51116-16.652 2.0748-17.53 2.2497-30.738 6.1254-17.587 5.1604-23.339 7.5439-45.996 19.06-38.907 19.776-49.965 28.786-73.501 59.886-12.218 16.145-14.951 19.983-18.365 25.792-1.9798 3.3691-5.2074 8.7412-7.1724 11.938-1.965 3.1968-5.658 11.475-8.2068 18.396-4.7796 12.979-4.872 13.581-5.7219 37.292-0.04928 1.375 0.36703 6.4103 0.92515 11.19 1.5044 12.882 7.4438 21.81 14.509 21.81 4.0351 0 9.5704-2.7714 11.54-5.7781 1.8005-2.7478 8.1891-20.463 11.711-32.474 1.2503-4.2637 2.822-8.4134 3.4927-9.2215s4.0205-6.794 7.444-13.302c10.619-20.186 22.181-35.938 37.601-51.224 15.466-15.332 27.783-24.609 42.977-32.369 5.775-2.9495 12.156-6.2979 14.181-7.4409 4.5028-2.5422 21.442-8.3485 32.446-11.122 11.399-2.8726 42.855-3.3496 59.373-0.90039 15.062 2.2332 37.153 7.295 46 10.54 40.724 14.937 75.013 41.774 95.101 74.434 15.192 24.7 19.837 35.175 25.843 58.279 4.619 17.769 5.5574 26.174 5.5353 49.579-0.0198 20.957-1.1637 34.938-3.2728 40-0.57292 1.375-1.8061 5.875-2.7404 10-2.4629 10.874-6.9933 22.463-12.705 32.5-1.2519 2.2-4.029 7.15-6.1712 11-9.8517 17.705-16.817 26.796-32.057 41.839-16.339 16.128-27.182 24.084-44.68 32.782-5.398 2.6834-10.037 4.8789-10.309 4.8789-0.27197 0-3.5432 1.398-7.2695 3.1066-8.6924 3.9858-25.439 8.9005-45.587 13.379-9.7494 2.1671-46.077 2.1157-55.991-0.0793-11.813-2.6155-37.496-11.324-48.197-16.343-37.673-17.668-63.183-39.532-86.411-74.064-4.6247-6.875-8.5861-12.712-8.8031-12.971-0.21702-0.25907-0.79564 0.1779-1.2858 0.97104-0.49019 0.79315-1.0602 1.2301-1.2667 0.97104s-3.1523-4.746-6.5462-9.971c-3.3939-5.225-6.1744-9.0192-6.1789-8.4315-0.03023 3.9621 7.8019 24.102 14.751 37.932 4.056 8.0718 10.785 18.238 18.121 27.377 2.8156 3.5076 5.1193 6.7701 5.1193 7.25 0 1.4392-2.0639 0.99617-5.632-1.209-5.1021-3.1532-4.071-0.92115 3.2044 6.9369 10.892 11.765 30.364 26.178 50.525 37.4 3.6285 2.0196 7.1711 4.3634 7.8724 5.2085s1.7825 1.5357 2.4027 1.5348c0.62015-9.2e-4 5.6276 1.8556 11.128 4.1255s12.25 5.0407 15 6.1571c9.5977 3.8965 24.06 7.9082 32 8.8763 4.4 0.53648 10.7 1.334 14 1.7722 11.135 1.4788 32.509 1.0929 47-0.84856zm139.5-389.46c0-0.20766-0.7875-0.99516-1.75-1.75-1.586-1.2439-1.6214-1.2085-0.37755 0.37756 1.3064 1.6657 2.1276 2.1955 2.1276 1.3724z" fill="#e2c6b6"/><path d="m0.21035 256.21v-256h512v512h-512zm285.5 227.02c19.98-3.0261 46.359-10.274 56.522-15.529 1.4009-0.72444 4.3316-1.6363 6.5126-2.0264 2.181-0.39011 4.9636-1.6186 6.1835-2.73 1.2199-1.1114 4.52-2.3846 7.3335-2.8294 3.5065-0.5543 7.6492-2.4173 13.171-5.923 33.026-20.968 59.099-47.284 76.763-77.48 2.8957-4.95 6.7933-11.559 8.6614-14.686 1.8681-3.1273 4.0795-7.6273 4.9143-10 0.83481-2.3727 3.2503-7.239 5.3678-10.814 4.4617-7.5329 12.42-28.854 14.67-39.302 5.1087-23.722 1.139-85.456-7.1825-111.7-0.78484-2.475-1.4248-5.6353-1.422-7.0228 0.0115-5.8597-13.376-35.308-22.266-48.977-3.0404-4.675-7.5928-10.975-10.116-14-2.5237-3.025-7.2571-8.875-10.519-13-7.0387-8.9017-16.776-18.651-17.702-17.725-0.3618 0.3618 0.75207 2.2636 2.4753 4.2262 2.7296 3.1089 4.1121 6.4988 2.6503 6.4988-0.26551 0-5.637-4.7015-11.937-10.448-6.2996-5.7462-14.07-12.119-17.267-14.162-3.1974-2.0429-9.4728-6.084-13.945-8.9803-26.304-17.034-63.599-29.561-98.144-32.967-10.685-1.0534-16.395-1.2123-19-0.52866-2.048 0.53757-6.6487 1.2653-10.224 1.6171-13.949 1.3728-26.847 3.7823-44 8.2196-14.598 3.7764-22.169 5.2623-23.288 4.5707-1.745-1.0785 7.3162-4.8968 18.288-7.7065 9.0468-2.3167 17.467-4.6274 23-6.312 0.825-0.25117 5.1851-0.84166 9.689-1.3122 4.504-0.47055 9.229-1.4454 10.5-2.1663l2.311-1.3108-2.7605-0.32444c-2.4757-0.29097-15.201 1.17-32.398 3.7196-6.3042 0.93465-18.02 4.2209-31.342 8.7913-10.904 3.7407-51.514 24.512-63.347 32.4-5.5839 3.7224-12.998 9.3382-16.477 12.48-8.2719 7.4709-31.117 36.057-40.911 51.193-11.104 17.16-12.821 20.511-19.812 38.673-4.97 12.912-5.386 46.963-0.68569 56.123 1.1481 2.2375 3.9399 5.7417 6.2039 7.7871 3.6824 3.3268 4.507 3.6486 7.8224 3.0527 4.5214-0.8127 8.1654-2.8489 10.341-5.7785 1.8737-2.5226 9.2375-22.885 11.868-32.816 0.97398-3.6778 2.6458-7.9528 3.7151-9.5 1.0693-1.5472 4.529-7.7393 7.6881-13.76 11.885-22.651 27.326-42.706 44.359-57.615 14.373-12.58 25.106-19.817 41.83-28.205 14.935-7.4905 25.226-11.331 40.838-15.24 10.719-2.684 11.319-2.7232 32.992-2.1554 12.141 0.3181 25.899 1.2392 30.574 2.0468 36.818 6.3605 59.995 15.361 87.463 33.964 8.916 6.0384 15.536 11.667 25.537 21.711 11.748 11.799 14.619 15.37 22.114 27.5 15.37 24.877 18.789 32.336 25.412 55.44 7.8476 27.379 9.3487 73.987 3.021 93.8-0.82557 2.585-2.373 8.0749-3.4387 12.2-3.1964 12.372-5.7241 18.177-16.113 37-11.293 20.462-17.26 28.349-33.959 44.883-20.382 20.182-31.752 27.702-61.138 40.441-9.5587 4.1437-27.224 9.4167-44.897 13.401-8.7901 1.9818-48.042 2.3086-56.5 0.47035-8.9413-1.9434-38.728-11.895-47.31-15.805-9.6203-4.3841-23.357-12.196-34.326-19.522-21.428-14.31-36.586-30.094-53.712-55.931-12.483-18.833-11.975-18.032-13.274-20.938-0.73208-1.6388-1.2867-2.0392-1.6101-1.1625-0.27132 0.73563 0.0073 1.8381 0.6192 2.45 1.3841 1.3841 1.4547 3.7125 0.1125 3.7125-0.55 0-1-0.49774-1-1.1061s-1.3111-2.7615-2.9135-4.7847c-1.6024-2.0232-3.7108-5.3505-4.6852-7.3939-1.9374-4.0627-3.9185-5.0644-2.8981-1.4653 4.3381 15.301 11.573 33.112 18.33 45.129 2.4456 4.3488 7.7936 12.35 11.884 17.781 4.0908 5.4306 7.2812 10.344 7.0898 10.918-0.19276 0.57829-2.0649-0.12067-4.195-1.5662-2.1158-1.4358-4.0682-2.3892-4.3387-2.1187-0.95151 0.95151 3.6753 6.2963 14.523 16.776 10.659 10.298 27.542 22.472 42.704 30.794 3.3 1.8113 6.7857 3.9786 7.746 4.8164 1.9826 1.7296 8.0204 4.341 25.254 10.923 28.461 10.869 39.524 12.933 70.5 13.153 13.885 0.0986 21.743-0.35988 31.5-1.8376zm106.64-414.05c-1.2984-1.0817-2.8734-1.9567-3.5-1.9445s-0.0142 0.90222 1.3608 1.9778c3.268 2.5563 5.2114 2.5261 2.1392-0.03327z" fill="#d5ad96"/><path d="m0.21035 256.21v-256h512v512h-512zm290.41 227.06c15.828-2.7849 28.092-6.1215 44.511-12.11 7.4699-2.7244 14.516-4.9537 15.657-4.954s3.0804-1.07 4.3083-2.3771c1.4709-1.5657 3.7488-2.5474 6.6766-2.8774 5.4592-0.61533 15.617-6.6304 33.219-19.67 19.733-14.619 37.803-33.62 51.903-54.576 5.5716-8.2812 19.02-32.321 20.439-36.536 0.64154-1.9053 2.673-5.9421 4.5144-8.9706 3.953-6.5015 10.564-23.567 13.417-34.637 1.1138-4.321 2.5089-12.806 3.1003-18.856 1.7469-17.871-0.07-53.409-3.6297-71-0.77912-3.85-1.9677-10.375-2.6414-14.5-0.67364-4.125-1.8226-9.2441-2.5532-11.376s-1.3284-5.1156-1.3284-6.6309c0-6.7778-14.687-39.156-22.45-49.493-1.2392-1.65-3.016-4.4811-3.9484-6.2914-0.93243-1.8103-3.8116-5.7222-6.3982-8.6931-2.5866-2.971-7.1779-8.5966-10.203-12.501-6.7958-8.7724-18.256-20.014-20.403-20.014-2.1761 0-2.0937 0.21658 1.9028 5 6.5014 7.7817 3.5578 6.1608-8.25-4.5427-6.4625-5.8581-14.675-12.367-18.25-14.463-3.575-2.0968-9.5031-5.8315-13.174-8.2994-10.558-7.0987-32.266-16.891-49.921-22.519-10.109-3.2224-32.073-8.139-38.905-8.7088-1.925-0.16057-7.9138-0.74988-13.308-1.3096-7.5622-0.78459-10.997-0.71772-15 0.29201-2.8554 0.72031-8.7915 1.6143-13.192 1.9867-4.4 0.37238-9.8 1.069-12 1.5479-2.2 0.47898-7.825 1.6237-12.5 2.5438-4.675 0.92008-11.875 2.5848-16 3.6994-8.2135 2.2193-14.738 3.6614-16.872 3.7291-2.1482 0.06817 0.47404-2.6296 3.153-3.2439 1.2207-0.27989 7.6195-1.932 14.219-3.6713 19.714-5.1954 22.864-5.9051 30.6-6.8938 8.8089-1.1259 13.303-2.6868 12.319-4.2788-0.81456-1.318-6.845-0.87476-28.215 2.0737-15.493 2.1376-35.218 7.5766-49.315 13.598-10.325 4.4102-37.421 18.4-48.889 25.242-19.104 11.397-34.656 27.07-53.087 53.502-2.2182 3.181-5.3189 7.2482-6.8905 9.038s-4.3284 5.9372-6.1264 9.2163c-1.798 3.2791-4.9169 8.5136-6.9308 11.632-2.0139 3.1186-4.6859 8.5186-5.9377 12-1.2518 3.4814-3.4108 9.2548-4.7979 12.83-2.7146 6.9965-3.8273 18.959-3.3951 36.5 0.30315 12.303 2.44 18.754 8.1863 24.716 3.9162 4.063 5.184 4.7843 8.4091 4.7843 4.713 0 10.703-3.2629 12.939-7.0478 1.9175-3.246 7.9202-20.19 10.633-30.014 3.5402-12.82 22.249-44.608 37.338-63.439 8.4052-10.49 26.385-26.649 39.247-35.272 8.4086-5.6375 31.436-17.422 40.271-20.609 4.0235-1.4514 12.564-4.0501 18.979-5.7749 11.201-3.0115 12.339-3.1257 28.664-2.8747 9.35 0.14376 18.8 0.2405 21 0.21497 10.532-0.12223 44.14 6.9537 58.62 12.342 28.571 10.632 49.452 23.999 70.38 45.052 14.439 14.526 19.503 21.628 34.024 47.723 7.5781 13.619 15.049 36.882 18.14 56.483 2.0178 12.795 2.4223 46.574 0.70317 58.714-1.3879 9.8017-6.4284 29.286-9.2697 35.833-1.1536 2.6581-2.0975 5.3278-2.0975 5.9327 0 1.7712-13.725 26.356-20.786 37.234-8.5793 13.216-12.947 18.194-29.225 33.31-16.369 15.2-26.592 21.9-48.537 31.806-15.711 7.0923-30.991 11.895-52.452 16.486-11.375 2.4335-43.435 2.6337-54.792 0.3421-32.732-6.6046-73.181-26.229-99.619-48.331-14.935-12.486-38.039-42.577-49.035-63.864-3.4146-6.6102-5.5537-8.417-5.5537-4.6911 0 3.1652-2.0487 1.1174-4.8111-4.809-1.6023-3.4375-3.2109-7.1019-3.5746-8.1431-1.3644-3.9054-1.4258-0.83675-0.12022 6.0151 3.9976 20.98 16.784 47.609 33.67 70.121 1.7505 2.3337 2.9603 4.4654 2.6886 4.7371-0.27177 0.27177-2.3957-0.9043-4.7198-2.6135-10.329-7.5963-3.5194 2.5836 11.505 17.199 7.8662 7.6518 14.872 13.201 25.405 20.124 7.9988 5.2573 16.549 10.566 19 11.797s5.3568 3.0383 6.4568 4.0157c5.4703 4.8604 49.201 20.563 61.5 22.083 4.125 0.50984 10.2 1.3444 13.5 1.8546 10.345 1.5994 44.431 0.49522 57.907-1.8759zm-223.41-116.56c0-0.825-0.675-1.5-1.5-1.5s-1.5 0.675-1.5 1.5 0.675 1.5 1.5 1.5 1.5-0.675 1.5-1.5zm329.06-295.38c-1.01-1.8871-9.0625-6.4527-9.9013-5.6139-1.2186 1.2186 6.8287 7.4835 9.6231 7.4917 0.94846 0.0028 1.0214-0.48922 0.27821-1.8778zm-123.06-43.118c0-0.55-0.675-1-1.5-1s-1.5 0.45-1.5 1 0.675 1 1.5 1 1.5-0.45 1.5-1z" fill="#c58c6c"/><path d="m0.21035 256.21v-256h512v512h-512zm288 228.04c17.772-2.7918 32.769-6.8325 49.868-13.436 5.133-1.9824 10.571-3.6043 12.084-3.6043 1.6928 0 3.9591-1.1542 5.8906-3 2.2914-2.1898 4.1058-3 6.7183-3 4.5151 0 14.103-5.7139 32.439-19.333 21.865-16.24 41.103-36.986 54.863-59.167 9.241-14.896 14.473-24.266 17.252-30.893 1.5895-3.7913 4.1632-8.9663 5.7192-11.5 3.3924-5.5239 10.296-23.517 13.278-34.607 1.7517-6.5148 2.2408-11.755 2.6342-28.224 0.5162-21.61-0.98105-49.636-3.2202-60.276-0.75232-3.575-1.898-9.2-2.5459-12.5-0.64791-3.3-1.5639-7.8-2.0355-10s-1.3085-6.417-1.8598-9.3712c-3.046-16.322-21.302-52.135-34.014-66.727-1.9638-2.2541-5.8093-6.9791-8.5456-10.5-10.745-13.826-22.95-24.809-25.138-22.622-0.30193 0.30193-0.0104 1.5552 0.64779 2.7851l1.1968 2.2361-2.8657-2.1331c-1.5762-1.1732-5.7907-4.7997-9.3657-8.0588-5.7548-5.2463-6.1717-5.863-3.6363-5.3791 2.8599 0.5459 2.8615 0.54328 1.2007-1.9915-1.9526-2.9801-8.306-7.3846-11.983-8.3076-3.0094-0.7553-3.1656-0.253-0.96591 3.1042 0.88826 1.3556 1.3179 2.4648 0.95484 2.4648-0.36309 0-3.9059-2.1902-7.873-4.8671-16.585-11.191-43.497-22.291-67.197-27.715-16.942-3.8774-20.53-4.5362-27-4.9576-3.3-0.21494-7.5618-0.67042-9.4707-1.0122-2.8788-0.51541-3.1772-0.78564-1.75-1.5844 2.1194-1.1861 2.2068-2.4631 0.22073-3.2252-2.3704-0.90962-4.7129 0.43947-4.1959 2.4165 0.39461 1.509-0.39024 1.8587-5.1694 2.3033-18.505 1.7216-42.845 5.8966-57.135 9.8002-4.125 1.1269-8.85 2.2397-10.5 2.473-2.9096 0.4113-2.8945 0.38212 0.5-0.96856 1.925-0.76595 7.55-2.4298 12.5-3.6974 4.95-1.2676 11.925-3.1025 15.5-4.0774s8.75-1.8347 11.5-1.9105c5.6294-0.15517 14.666-2.8905 15.221-4.6076 0.60004-1.8545-5.0757-2.1055-16.988-0.75134-20.269 2.3042-27.082 3.5312-38.972 7.0191-17.469 5.1243-23.258 7.5189-45.953 19.007-41.155 20.832-50.954 28.843-75.663 61.856-4.5283 6.05-9.5859 12.684-11.239 14.742s-4.499 6.3332-6.3239 9.5c-1.8249 3.1668-5.2188 8.9913-7.542 12.943-2.3233 3.9519-6.0395 12.052-8.2584 18-3.4908 9.3577-4.1606 12.499-4.9717 23.315-1.201 16.013-1.2008 15.947-0.07467 26 1.1204 10.002 3.4664 15.143 9.3251 20.436 3.939 3.5587 4.4981 3.76 8.8224 3.176 4.9275-0.66537 8.3406-2.6916 11.371-6.7506 2.0186-2.7037 8.9552-21.486 11.618-31.458 1.536-5.7521 3.7873-10.281 15.509-31.195 9.6838-17.279 23.987-35.639 36.917-47.388 16.958-15.409 26.051-21.437 52.741-34.959 5.9804-3.0299 22.366-8.6266 33.168-11.329 10.467-2.6184 44.406-2.6207 60.794-0.0041 27.895 4.4541 46.235 10.122 66.629 20.591 18.813 9.6574 31.285 18.794 46.927 34.378 12.234 12.188 15.092 15.688 22.058 27.003 10.889 17.689 16.657 28.588 19.846 37.5 4.0995 11.459 8.4318 27.51 10.122 37.5 2.0866 12.335 3.3821 42.29 2.2056 51-0.52002 3.85-1.3025 9.7-1.7389 13-1.6644 12.587-7.9988 33.645-13.235 44-14.631 28.933-23.198 41.136-41.706 59.408-20.352 20.093-32.599 28.196-60.606 40.098-11.23 4.7722-13.312 5.4359-33 10.52-22.141 5.717-51.436 6.9203-69.5 2.8546-13.383-3.0122-40.516-12.754-52.681-18.914-22.979-11.637-45.918-28.414-58.913-43.086-11.766-13.285-28.416-37.529-35.753-52.059-3.108-6.1548-4.2256-7.0647-5.007-4.0768-0.81544 3.1183-1.9828 1.5891-5.5122-7.2209-1.6475-4.1123-3.4766-7.6373-4.0648-7.8333-1.3204-0.44012-1.3765 2.8969-0.12939 7.6942 0.517 1.9888 1.6816 6.541 2.5881 10.116 2.1352 8.4212 11.607 31.282 16.733 40.385 2.2033 3.913 6.8825 11.052 10.398 15.865 3.5158 4.8125 6.0858 8.75 5.711 8.75-0.37478 0-2.1564-1.125-3.9591-2.5-3.3385-2.5464-5.4111-3.1784-5.4111-1.65 0 3.5441 19.316 24.14 31 33.053 8.9191 6.8043 22.36 15.587 30 19.604 3.025 1.5904 6.4851 3.7546 7.689 4.8093 2.242 1.9641 11.5 6.012 28.311 12.378 16.558 6.2707 27.246 9.3669 36 10.429 4.675 0.56719 11.425 1.4158 15 1.8859 9.9015 1.3019 37.935 0.24031 52-1.9691zm-220.56-115.95c0.97906-1.5842-0.58406-4.0902-2.5512-4.0902-1.8513 0-2.6693 2.8904-1.2263 4.3333 0.95943 0.95942 3.1203 0.82037 3.7776-0.24309zm306.56-311.03c0-1.3504-1.8229-2.2865-3.0163-1.5489-0.55897 0.34546-0.75741 1.047-0.44098 1.559 0.75067 1.2146 3.4573 1.2067 3.4573-0.01008zm-112-28.559c0-0.83333-0.88889-1.5-2-1.5s-2 0.66667-2 1.5c0 0.83333 0.88889 1.5 2 1.5s2-0.66667 2-1.5z" fill="#c17a52"/><path d="m0.21035 256.21v-256h512v512h-512zm285 229.02c18.675-3.0158 35.075-7.5056 58.225-15.939 3.1488-1.1471 6.7828-2.0857 8.0757-2.0857 1.2929 0 3.3554-1.0694 4.5833-2.3765 1.4622-1.5564 3.748-2.5473 6.6241-2.8715 5.0644-0.57083 14.598-6.3399 32.492-19.662 16.34-12.165 25.643-20.624 34.999-31.826 13.444-16.095 31.606-44.568 37.483-58.764 1.1386-2.75 3.8018-8.0683 5.9182-11.818 5.5223-9.7853 11.504-26.547 14.161-39.682 3.7197-18.39 2.4557-61.557-2.5622-87.5-0.63829-3.3-1.5934-8.475-2.1224-11.5-0.52905-3.025-1.6177-7.5854-2.4193-10.134s-1.4574-5.7845-1.4574-7.1904c0-9.5109-18.419-46.149-31.686-63.027-2.0976-2.6686-5.4675-6.9892-7.4886-9.6012-13.683-17.684-31.897-33.15-29.262-24.848 0.50536 1.5922-1.173 0.55719-6.0808-3.75-4.743-4.1625-6.2838-6.0463-5.1306-6.2726 0.9065-0.17783 1.6482-0.68302 1.6482-1.1226 0-1.5462-8.9078-8.9887-12.61-10.535-4.6862-1.958-6.6675-0.6067-3.8168 2.6032l1.9264 2.1691-2.5-1.2974c-1.375-0.71358-4.975-2.968-8-5.0098-18.979-12.811-64.297-28.532-88-30.529-10.805-0.91021-13.754-1.6796-13.287-3.4666 0.25354-0.96954-0.0538-2.0809-0.68297-2.4698-1.7549-1.0846-6.0303 0.33363-6.0303 2.0003 0 2.1938-3.9168 1.8052-5.8485-0.58024-2.273-2.807-5.5454-1.6443-4.7125 1.6743 0.67066 2.6721-0.0991 2.9611-9.939 3.7309-6.1043 0.47757-6.0068 0.32425 1.75-2.7539 9.6843-3.843-0.60506-5.8724-16.25-3.205-1.375 0.23443-7 0.95897-12.5 1.6101-9.6648 1.1442-25.034 4.8706-38.5 9.3348-8.6391 2.864-44.703 20.701-58.5 28.933-20.325 12.128-30.303 22.051-54.4 54.101-6.1466 8.1752-12.12 16.725-13.275 19-1.1544 2.2748-3.3258 5.9359-4.8253 8.1359-4.1699 6.1181-6.7428 11.616-11.008 23.521-3.4439 9.6138-4.0316 12.612-4.9912 25.463-0.59819 8.0115-0.76822 15.083-0.37784 15.715s0.79904 3.9053 0.90814 7.2748c0.24843 7.6725 2.9978 14.055 8.3677 19.425 3.4476 3.4476 4.7443 4.1008 8.1407 4.1008 5.268 0 11.532-3.2581 14.016-7.2903 1.0876-1.7653 2.83-5.9097 3.872-9.2097 1.042-3.3 3.2845-9.7432 4.9834-14.318s3.0888-9.1044 3.0888-10.065c0-3.8987 13.996-28.804 25.665-45.67 10.19-14.727 15.639-20.916 29.203-33.164 12.639-11.413 23.424-18.791 40.255-27.538 14.332-7.4486 22.078-10.429 38.713-14.897 11.203-3.0087 12.335-3.1218 28.664-2.8644 9.35 0.14741 18.8 0.2425 21 0.21131 5.7902-0.08208 25.331 3.2521 43.026 7.3412 9.5939 2.2171 28.029 9.5513 39.457 15.697 29.436 15.831 52.303 36.346 67.175 60.266 15.233 24.5 20.784 36.911 26.698 59.688 4.0911 15.758 5.5488 28.464 5.5999 48.812 0.0496 19.731-0.80954 29.543-3.4147 39-0.98477 3.575-2.3617 8.975-3.0599 12-2.6557 11.506-6.4536 20.119-17.663 40.057-10.485 18.649-17.593 27.904-33.485 43.601-16.711 16.505-26.642 23.512-47.334 33.396-16.887 8.0664-22.525 10.192-37.5 14.14-21.904 5.7741-22.983 5.9326-44.249 6.5009-17.442 0.46612-22.224 0.26926-30-1.2351-11.578-2.2397-38.345-11.213-50.289-16.859-17.691-8.3621-39.255-22.382-51.848-33.709-14.91-13.411-34.183-38.975-46.095-61.145-2.587-4.8146-5.5296-9.7646-6.5391-11-1.8331-2.2434-1.8349-2.2405-1.3953 2.2538l0.44014 4.5-2.9353-6c-1.6144-3.3-2.9798-6.675-3.0342-7.5-0.05436-0.825-0.93474-2.5874-1.9564-3.9164-1.8177-2.3645-1.8716-2.3723-2.5099-0.36097-0.73683 2.3216 4.0664 21.657 7.9296 31.92 4.5003 11.956 15.278 32.632 21.462 41.171 3.3114 4.5729 6.0207 8.5504 6.0207 8.8389 0 0.2885-1.3845-0.64046-3.0767-2.0644-3.0159-2.5377-5.9233-3.4018-5.9233-1.7603 0 3.6804 20.126 25.558 31.566 34.313 6.8976 5.2786 24.522 16.79 31.274 20.426 2.5632 1.3805 6.0303 3.5051 7.7048 4.7214 1.6744 1.2163 7.2994 3.8814 12.5 5.9224 5.2006 2.041 13.056 5.1234 17.456 6.8496 12.965 5.0868 23.466 8.0662 32 9.0798 4.4 0.52256 10.475 1.344 13.5 1.8254 7.4855 1.1912 42.748 0.55321 52-0.94088zm-88.232-442.19c0.58111-0.5811 1.6468-0.85979 2.3683-0.61931 0.74895 0.24965 0.29566 0.70294-1.0566 1.0566-1.6633 0.43498-2.0538 0.30483-1.3117-0.43724zm21.732-5.8316c1.1-0.47269 2.9-0.85943 4-0.85943h2l-2 0.85943c-1.1 0.47269-2.9 0.85943-4 0.85943h-2zm8-1.9141c3.2455-1.2777 9.5-2.028 9.5-1.1396 0 1.1121-3.744 2.0372-8 1.9767-2.7568-0.03917-3.0753-0.21693-1.5-0.83709zm-158.5 332.04c0-2.2521-2.4943-4.553-3.9562-3.6495-1.1653 0.72022-1.4067 3.8308-0.37714 4.8604 1.4357 1.4357 4.3333 0.62597 4.3333-1.2109zm-9.889-37.411c-1.7023-1.7023-2.4468 1.8121-0.94497 4.4609l1.32 2.3281 0.33519-2.8718c0.18435-1.5795-0.13524-3.3422-0.71021-3.9172zm315.89-272.71c0-1.3333-0.66666-2-2-2-1.9272 0-2.7099 1.9568-1.3333 3.3333s3.3333 0.59386 3.3333-1.3333zm-14.5-7c0.33992-0.55 0.14148-1-0.44098-1s-1.059 0.45-1.059 1 0.19845 1 0.44099 1 0.71909-0.45 1.059-1z" fill="#ba734b"/><path d="m0.21035 256.21v-256h512v512h-512zm285 229.48c17.734-2.534 35.737-7.2588 52.869-13.875 5.133-1.9824 10.658-3.6043 12.278-3.6043 1.7598 0 3.8929-0.94784 5.3001-2.355 1.4039-1.404 4.0523-2.5826 6.5579-2.9187 4.7781-0.64088 14.488-6.3288 29.496-17.279 22.828-16.655 37.499-31.28 52.192-52.029 8.2498-11.649 21.481-34.247 24.415-41.696 1.1312-2.8728 3.5557-7.6983 5.3876-10.723 3.7585-6.2062 10.542-24.007 13.606-35.706 3.8412-14.664 3.4943-69.208-0.56164-88.294-0.75971-3.575-1.9114-9.2-2.5593-12.5-0.64791-3.3-1.5644-7.8-2.0367-10s-1.3356-6.5983-1.9186-9.774c-1.2104-6.5942-3.9619-14.055-10.294-27.911-5.7388-12.559-16.949-31.063-23.145-38.203-1.9622-2.2615-5.736-6.8911-8.3861-10.288-12.191-15.626-26.499-27.981-29.51-25.481-0.91499 0.75938-2.149 0.349-4.5124-1.5006-2.6398-2.066-3.0279-2.8171-2.0588-3.9848 0.96491-1.1626 0.54012-2.1281-2.2122-5.028-7.0499-7.4278-16.133-11.508-17.528-7.8742-0.45227 1.1786-1.2985 0.96502-4.4564-1.1248-3.2775-2.1689-3.7989-2.9749-3.275-5.0622 0.40119-1.5984 0.12972-2.795-0.76226-3.3599-2.1819-1.3818-4.8854-1.0542-4.8854 0.59202 0 2.0149-1.3133 1.891-6.1588-0.58102-3.0086-1.5349-3.7855-2.3747-2.9602-3.2 1.7683-1.7683 1.3062-3.719-0.88103-3.719-1.1111 0-2 0.66667-2 1.5 0 2.1039-1.1368 1.9178-9.8334-1.6097-16.901-6.8553-24.194-8.9462-54.167-15.529-1.925-0.42278-4.625-0.81768-6-0.87756-11.598-0.50506-11-0.34873-11-2.8755 0-4.1787-7.228-4.616-8.5293-0.51603-0.80126 2.5245-3.1682 2.4359-3.9888-0.14936-0.50935-1.6048-1.3485-1.9895-3.8174-1.75-2.6165 0.25382-3.2193 0.7832-3.481 3.057-0.26792 2.3285-0.78304 2.75-3.3608 2.75h-3.0444l2.2699-1.838c5.1647-4.1821-0.83805-5.4427-17.048-3.5802-21.307 2.4481-27.449 3.5861-41 7.5956-19.389 5.737-31.206 10.997-62 27.597-24.938 13.443-37.645 24.89-57.979 52.226-3.8866 5.225-9.095 12.2-11.574 15.5-8.0386 10.699-18.105 28.896-22.45 40.583-3.7145 9.9903-4.3622 12.978-5.1844 23.917-1.2033 16.009-1.2031 15.945-0.0767 26 1.2848 11.469 5.0932 18.566 12.604 23.487 4.7577 3.1174 15.196-0.0776 18.945-5.7985 1.7038-2.6004 9.1504-23.225 11.622-32.188 0.90985-3.3 3.2643-8.925 5.2322-12.5 1.9678-3.575 5.2558-9.65 7.3065-13.5 4.9059-9.2104 16.894-27.008 24.925-37.005 6.9523-8.6536 26.097-25.762 37.212-33.254 9.8171-6.6174 34.326-18.915 44.389-22.273 20.128-6.7165 23.331-7.2814 41.029-7.2363 26.117 0.06658 35.344 0.86159 53.519 4.6115 42.096 8.6851 76.877 28.472 105.74 60.157 9.4873 10.414 27.266 39.709 32.468 53.5 3.9069 10.356 9.1793 29.514 10.843 39.399 2.0957 12.453 3.3928 42.38 2.2148 51.101-0.52002 3.85-1.3025 9.7-1.7389 13-1.1574 8.7524-5.4943 24.743-9.3568 34.5-4.2327 10.692-14.952 30.467-23.575 43.494-8.9348 13.497-32.492 36.925-46.251 45.998-23.03 15.186-48.237 25.093-81.865 32.174-11.334 2.3864-45.021 2.4137-55 0.0446-10.694-2.5388-33.997-10.349-44.169-14.803-17.802-7.795-38.752-20.898-53.831-33.668-15.682-13.281-34.311-37.826-47.994-63.238-7.3243-13.602-7.624-14.006-10.172-13.721-1.429 0.16016-2.3275-0.74049-3.2713-3.2792-4.5756-12.308-7.1643-14.668-6.0172-5.4865 0.61885 4.9531 0.51427 5.4465-1.029 4.8543-1.6645-0.63872-3.472 0.9803-3.4969 3.1322-0.0064 0.55 0.90462 2.5028 2.0244 4.3395 1.5591 2.5573 2.3422 3.0853 3.3434 2.2544 1.0348-0.85882 1.7714 0.52996 3.5324 6.6605 2.4587 8.559 11.872 31.212 15.892 38.246 1.4148 2.475 4.743 7.7527 7.3961 11.728l4.8238 7.2281-3.0157-0.60314c-2.2927-0.45853-3.0157-0.2399-3.0157 0.91184 0 2.7486 8.5341 13.064 20.105 24.302 11.156 10.834 27.789 22.873 43.395 31.408 3.3 1.8047 6.7857 3.9668 7.746 4.8045 1.8282 1.5949 7.2346 3.9961 22.254 9.8838 17.551 6.8801 32.942 11.46 42 12.498 4.95 0.56728 11.7 1.4096 15 1.8719 8.2207 1.1515 35.735 0.26988 48.499-1.554zm-216.48-117.53c0.3575-1.1264 0.08971-2.7231-0.59511-3.5483-1.6324-1.9669-5.3061-1.3948-5.7425 0.89428-0.7845 4.1149 5.0928 6.5761 6.3376 2.654zm-6.5152-10.952c0-1.1-0.64844-2-1.441-2-1.7666 0-2.8961 1.6456-2.059 3 1.0875 1.7596 3.5 1.0703 3.5-1z" fill="#bb622e"/></g></svg>
